<?xml version="1.0" encoding="UTF-8"?>
<!DOCTYPE svg PUBLIC "-//W3C//DTD SVG 1.1//EN" "http://www.w3.org/Graphics/SVG/1.1/DTD/svg11.dtd">
<!-- Creator: CorelDRAW -->
<svg xmlns="http://www.w3.org/2000/svg" xml:space="preserve" width="16px" height="16px" version="1.1" shape-rendering="geometricPrecision" text-rendering="geometricPrecision" image-rendering="optimizeQuality" fill-rule="evenodd" clip-rule="evenodd"
viewBox="0 0 1.06 1.06"
 xmlns:xlink="http://www.w3.org/1999/xlink"
 xmlns:xodm="http://www.corel.com/coreldraw/odm/2003">
 <defs>
    <linearGradient id="id0" gradientUnits="userSpaceOnUse" x1="0" y1="0.53" x2="1.06" y2="0.53">
     <stop offset="0" stop-opacity="1" stop-color="#FF0062"/>
     <stop offset="1" stop-opacity="1" stop-color="#FFE500"/>
    </linearGradient>
 </defs>
 <g id="Слой_x0020_1">
  <metadata id="CorelCorpID_0Corel-Layer"/>
  <g id="_2015819375184">
   <rect fill="none" width="1.06" height="1.06"/>
   <path fill="url(#id0)" d="M0.02 0.12l0.28 0.06 0.44 -0.12c0.02,-0.01 0.04,0 0.05,0.01l0.26 0.4c0.01,0.01 0.01,0.04 -0.01,0.05l-0.25 0.23c-0.01,0.01 -0.02,0.01 -0.04,0.01l-0.28 -0.05 -0.32 0.29c-0.01,0 -0.01,0 -0.02,0 -0.01,0 -0.01,-0.01 -0.01,-0.01l0.12 -0.46c0,-0.02 0.02,-0.03 0.04,-0.03l0.48 0 -0.09 -0.2 -0.39 0.11c-0.01,0.01 -0.03,0 -0.04,-0.01l-0.24 -0.26c0,0 0,-0.01 0,-0.02 0,0 0.01,0 0.02,0z"/>
  </g>
 </g>
</svg>
